ModelForces
version=1
nRows=4
nColumns=203
inDegrees=no

This file contains the forces exerted on a model during a simulation.

A force is a generalized force, meaning that it can be either a force (N) or a torque (Nm).

Units are S.I. units (second, meters, Newtons, ...)
Angles are in degrees.

endheader
time	glut_med1_r	glut_med2_r	glut_med3_r	glut_min1_r	glut_min2_r	glut_min3_r	semimem_r	semiten_r	bifemlh_r	bifemsh_r	sar_r	add_long_r	add_brev_r	add_mag1_r	add_mag2_r	add_mag3_r	tfl_r	pect_r	grac_r	glut_max1_r	glut_max2_r	glut_max3_r	iliacus_r	psoas_r	quad_fem_r	gem_r	peri_r	rect_fem_r	vas_med_r	vas_int_r	vas_lat_r	med_gas_r	lat_gas_r	soleus_r	tib_post_r	flex_dig_r	flex_hal_r	tib_ant_r	per_brev_r	per_long_r	per_tert_r	ext_dig_r	ext_hal_r	glut_med1_l	glut_med2_l	glut_med3_l	glut_min1_l	glut_min2_l	glut_min3_l	semimem_l	semiten_l	bifemlh_l	bifemsh_l	sar_l	add_long_l	add_brev_l	add_mag1_l	add_mag2_l	add_mag3_l	tfl_l	pect_l	grac_l	glut_max1_l	glut_max2_l	glut_max3_l	iliacus_l	psoas_l	quad_fem_l	gem_l	peri_l	rect_fem_l	vas_med_l	vas_int_l	vas_lat_l	med_gas_l	lat_gas_l	soleus_l	tib_post_l	flex_dig_l	flex_hal_l	tib_ant_l	per_brev_l	per_long_l	per_tert_l	ext_dig_l	ext_hal_l	ercspn_r	ercspn_l	intobl_r	intobl_l	extobl_r	extobl_l	femur_lat_meniscii_l.femur_lat_l.force.X	femur_lat_meniscii_l.femur_lat_l.force.Y	femur_lat_meniscii_l.femur_lat_l.force.Z	femur_lat_meniscii_l.femur_lat_l.torque.X	femur_lat_meniscii_l.femur_lat_l.torque.Y	femur_lat_meniscii_l.femur_lat_l.torque.Z	femur_lat_meniscii_l.meniscus_lat_l.force.X	femur_lat_meniscii_l.meniscus_lat_l.force.Y	femur_lat_meniscii_l.meniscus_lat_l.force.Z	femur_lat_meniscii_l.meniscus_lat_l.torque.X	femur_lat_meniscii_l.meniscus_lat_l.torque.Y	femur_lat_meniscii_l.meniscus_lat_l.torque.Z	femur_med_meniscii_l.femur_med_l.force.X	femur_med_meniscii_l.femur_med_l.force.Y	femur_med_meniscii_l.femur_med_l.force.Z	femur_med_meniscii_l.femur_med_l.torque.X	femur_med_meniscii_l.femur_med_l.torque.Y	femur_med_meniscii_l.femur_med_l.torque.Z	femur_med_meniscii_l.meniscus_med_l.force.X	femur_med_meniscii_l.meniscus_med_l.force.Y	femur_med_meniscii_l.meniscus_med_l.force.Z	femur_med_meniscii_l.meniscus_med_l.torque.X	femur_med_meniscii_l.meniscus_med_l.torque.Y	femur_med_meniscii_l.meniscus_med_l.torque.Z	femur_lat_meniscii_r.femur_lat_r.force.X	femur_lat_meniscii_r.femur_lat_r.force.Y	femur_lat_meniscii_r.femur_lat_r.force.Z	femur_lat_meniscii_r.femur_lat_r.torque.X	femur_lat_meniscii_r.femur_lat_r.torque.Y	femur_lat_meniscii_r.femur_lat_r.torque.Z	femur_lat_meniscii_r.meniscus_lat_r.force.X	femur_lat_meniscii_r.meniscus_lat_r.force.Y	femur_lat_meniscii_r.meniscus_lat_r.force.Z	femur_lat_meniscii_r.meniscus_lat_r.torque.X	femur_lat_meniscii_r.meniscus_lat_r.torque.Y	femur_lat_meniscii_r.meniscus_lat_r.torque.Z	femur_med_meniscii_r.femur_med_r.force.X	femur_med_meniscii_r.femur_med_r.force.Y	femur_med_meniscii_r.femur_med_r.force.Z	femur_med_meniscii_r.femur_med_r.torque.X	femur_med_meniscii_r.femur_med_r.torque.Y	femur_med_meniscii_r.femur_med_r.torque.Z	femur_med_meniscii_r.meniscus_med_r.force.X	femur_med_meniscii_r.meniscus_med_r.force.Y	femur_med_meniscii_r.meniscus_med_r.force.Z	femur_med_meniscii_r.meniscus_med_r.torque.X	femur_med_meniscii_r.meniscus_med_r.torque.Y	femur_med_meniscii_r.meniscus_med_r.torque.Z	femur_med_tibia_l.tibia_upper_l.force.X	femur_med_tibia_l.tibia_upper_l.force.Y	femur_med_tibia_l.tibia_upper_l.force.Z	femur_med_tibia_l.tibia_upper_l.torque.X	femur_med_tibia_l.tibia_upper_l.torque.Y	femur_med_tibia_l.tibia_upper_l.torque.Z	femur_med_tibia_l.femur_med_l.force.X	femur_med_tibia_l.femur_med_l.force.Y	femur_med_tibia_l.femur_med_l.force.Z	femur_med_tibia_l.femur_med_l.torque.X	femur_med_tibia_l.femur_med_l.torque.Y	femur_med_tibia_l.femur_med_l.torque.Z	femur_lat_tibia_l.tibia_upper_l.force.X	femur_lat_tibia_l.tibia_upper_l.force.Y	femur_lat_tibia_l.tibia_upper_l.force.Z	femur_lat_tibia_l.tibia_upper_l.torque.X	femur_lat_tibia_l.tibia_upper_l.torque.Y	femur_lat_tibia_l.tibia_upper_l.torque.Z	femur_lat_tibia_l.femur_lat_l.force.X	femur_lat_tibia_l.femur_lat_l.force.Y	femur_lat_tibia_l.femur_lat_l.force.Z	femur_lat_tibia_l.femur_lat_l.torque.X	femur_lat_tibia_l.femur_lat_l.torque.Y	femur_lat_tibia_l.femur_lat_l.torque.Z	femur_med_tibia_r.tibia_upper_r.force.X	femur_med_tibia_r.tibia_upper_r.force.Y	femur_med_tibia_r.tibia_upper_r.force.Z	femur_med_tibia_r.tibia_upper_r.torque.X	femur_med_tibia_r.tibia_upper_r.torque.Y	femur_med_tibia_r.tibia_upper_r.torque.Z	femur_med_tibia_r.femur_med_r.force.X	femur_med_tibia_r.femur_med_r.force.Y	femur_med_tibia_r.femur_med_r.force.Z	femur_med_tibia_r.femur_med_r.torque.X	femur_med_tibia_r.femur_med_r.torque.Y	femur_med_tibia_r.femur_med_r.torque.Z	femur_lat_tibia_r.tibia_upper_r.force.X	femur_lat_tibia_r.tibia_upper_r.force.Y	femur_lat_tibia_r.tibia_upper_r.force.Z	femur_lat_tibia_r.tibia_upper_r.torque.X	femur_lat_tibia_r.tibia_upper_r.torque.Y	femur_lat_tibia_r.tibia_upper_r.torque.Z	femur_lat_tibia_r.femur_lat_r.force.X	femur_lat_tibia_r.femur_lat_r.force.Y	femur_lat_tibia_r.femur_lat_r.force.Z	femur_lat_tibia_r.femur_lat_r.torque.X	femur_lat_tibia_r.femur_lat_r.torque.Y	femur_lat_tibia_r.femur_lat_r.torque.Z	aACL_R	pACL_R	aPCL_R	pPCL_R	aMCL_R	mMCL_R	pMCL_R	aLCL_R	mLCL_R	pLCL_R	aPCL_L	pPCL_L	aMCL_L	aLCL_L
      0.07979424	     19.78789969	     13.99012419	     15.13075599	      6.33562614	      7.21381244	      8.35508899	    150.73560372	    181.78549816	    186.19469968	    331.62512119	    130.56411711	     13.99813230	      9.78944091	      7.18231229	      6.15824212	     10.66957366	      9.04079197	      5.36712587	    107.83431033	      9.06343514	     13.79853272	     10.43563106	     38.08538716	     30.51372236	      8.80113799	      5.40192990	     12.25637128	     46.17818962	     31.12675814	     30.65757642	     45.69471389	     46.20522761	      9.66863718	      0.00000000	      0.00000000	      2.00806082	      1.37785880	     36.70993539	      5.68978114	      8.01617336	     15.18908457	     21.50833157	      6.41066378	     19.78789969	     13.99012419	     15.13075599	      6.33562614	      7.21381244	      8.35508899	     25.18362758	     10.63938279	     21.78204643	     17.53032171	      3.60685253	     13.99813230	      9.78944091	      7.18231229	      6.15824212	     10.66957366	      8.23980341	      5.36712587	      3.75440128	      9.06343514	     13.79853272	     10.43563106	     38.08538716	     30.51372236	      8.80113799	      5.40192990	     12.25637128	     30.03612487	     16.71063607	     19.42785256	     20.89011244	     43.53142698	     20.26794173	     93.40445049	     69.61681868	      9.98761759	      9.82830367	     23.33004454	     12.66083403	     30.43245847	      4.71068960	     15.46361080	      4.83437876	     59.69765649	     59.69765649	     22.96429777	     22.96429777	     39.57129276	     39.57129276	      2.76307435	     50.99597937	     -9.56042239	      5.21997485	     -0.02578839	      1.48581788	     -2.76307435	    -50.99597937	      9.56042239	     -1.74637766	      0.02558040	     -0.48301696	     -3.31599387	     20.97615968	     -3.40468921	      0.94473225	     -0.02138609	     -1.00501789	      3.31599387	    -20.97615968	      3.40468921	      0.28075727	      0.00368718	     -0.29758878	     74.57338316	    301.14097484	     16.59928784	    -13.85630900	      1.82757787	     28.93143402	    -74.57338316	   -301.14097484	    -16.59928784	      8.55980075	     -2.20333599	      1.68040367	     93.69347185	    694.43636975	     23.79298337	      6.67169914	     -1.89381856	     35.22517214	    -93.69347185	   -694.43636975	    -23.79298337	    -13.34617009	      1.40129162	      5.43315808	      0.00000000	      0.00000000	      0.00000000	      0.00000000	      0.00000000	      0.00000000	      0.00000000	      0.00000000	      0.00000000	      0.00000000	      0.00000000	      0.00000000	      0.00000000	      0.00000000	      0.00000000	      0.00000000	      0.00000000	      0.00000000	      0.00000000	      0.00000000	      0.00000000	      0.00000000	      0.00000000	      0.00000000	     35.83369799	   -252.40506969	     25.51109747	     -5.59587506	     -0.47461408	      3.14566982	    -35.83369799	    252.40506969	    -25.51109747	     16.23283374	      0.77709708	    -15.09393360	      0.00000000	      0.00000000	      0.00000000	      0.00000000	      0.00000000	      0.00000000	      0.00000000	      0.00000000	      0.00000000	      0.00000000	      0.00000000	      0.00000000	      0.00000000	      0.00000000	     28.86323096	     40.64267141	      0.00000000	      0.00000000	      0.00000000	      5.37004836	      0.00000000	      0.00000000	      0.00000000	      0.00000000	      0.00000001	      0.00000000
      0.08053504	     19.66524407	     13.90665000	     15.03964601	      6.29907567	      7.17334342	      8.30333097	    149.29442910	    181.91237536	    184.08993713	    331.06992119	    130.96747671	     13.91387851	      9.73344519	      7.13948577	      6.12089051	     10.60296867	      9.02489295	      5.33594234	    108.06832100	      9.00891816	     13.71547011	     10.37226212	     37.92792584	     30.33576025	      8.74942159	      5.37585399	     12.18069775	     46.02103624	     32.72856841	     36.98982658	     47.29611243	     47.08837180	      9.34305882	      0.00000000	      0.00000000	      1.80841270	      1.19252538	     36.49886448	      5.62696083	      7.84070188	      1.72816509	     21.53317795	      6.37881330	     19.66524407	     13.90665000	     15.03964601	      6.29907567	      7.17334342	      8.30333097	     25.02802856	     10.57356257	     21.64589145	     17.42714164	      3.58613303	     13.91387851	      9.73344519	      7.13948577	      6.12089051	     10.60296867	      8.19892612	      5.33594234	      3.73250077	      9.00891816	     13.71547011	     10.37226212	     37.92792584	     30.33576025	      8.74942159	      5.37585399	     12.18069775	     29.84791577	     16.60802615	     19.30771644	     20.76042517	     43.26880464	     20.14509114	     92.82624712	     69.35326164	      9.92293867	      9.76382234	     23.18373090	     12.58116581	     30.25701613	      4.68323854	     15.37070543	      4.80515498	     59.35259962	     59.35259962	     22.82389631	     22.82389631	     39.44031518	     39.44031518	      2.76307435	     50.99597937	     -9.56042239	      5.21997485	     -0.02578839	      1.48581788	     -2.76307435	    -50.99597937	      9.56042239	     -1.74637766	      0.02558040	     -0.48301696	     -3.31599387	     20.97615968	     -3.40468921	      0.94473225	     -0.02138609	     -1.00501789	      3.31599387	    -20.97615968	      3.40468921	      0.28075727	      0.00368718	     -0.29758878	     73.38983180	    286.08184817	     15.89027455	    -13.21035745	      1.79449818	     28.51390149	    -73.38983180	   -286.08184817	    -15.89027455	      8.12943072	     -2.16217256	      1.57200579	     98.42069538	    684.32217536	     20.90718684	      7.64265801	     -2.01921158	     37.15735742	    -98.42069538	   -684.32217536	    -20.90718684	    -13.25631513	      1.52898195	      5.31488206	      0.00000000	      0.00000000	      0.00000000	      0.00000000	      0.00000000	      0.00000000	      0.00000000	      0.00000000	      0.00000000	      0.00000000	      0.00000000	      0.00000000	      0.00000000	      0.00000000	      0.00000000	      0.00000000	      0.00000000	      0.00000000	      0.00000000	      0.00000000	      0.00000000	      0.00000000	      0.00000000	      0.00000000	     34.05057555	   -263.41012824	     26.78412622	     -5.83957475	     -0.42640196	      3.20062978	    -34.05057555	    263.41012824	    -26.78412622	     16.99827804	      0.73418566	    -14.35973660	      0.00000000	      0.00000000	      0.00000000	      0.00000000	      0.00000000	      0.00000000	      0.00000000	      0.00000000	      0.00000000	      0.00000000	      0.00000000	      0.00000000	      0.00000000	      0.00000000	     30.72508927	     43.57849984	      0.00000000	      0.00000000	      0.00000000	      8.36030964	      0.00000000	      0.00000000	      0.00000000	      0.00000000	      0.00000001	      0.00000000
      0.08119672	     19.55674798	     13.83282489	     14.95906876	      6.26674770	      7.13755331	      8.25754938	    148.20014222	    182.08712287	    182.36589619	    330.70056781	    131.33115709	     13.83936450	      9.68391681	      7.10161069	      6.08785758	     10.54404140	      9.01676376	      5.30836215	    108.32049265	      8.96070599	     13.64201279	     10.31621931	     37.78869789	     30.17836039	      8.70368218	      5.35279429	     12.11365472	     45.87978141	     32.41606435	     32.93220687	     43.65151441	     47.92993221	      9.07803940	      0.00000000	      0.00000000	      1.63378700	      1.03291505	     36.31521931	      5.58262701	      7.69692542	     11.14820050	     21.55869932	      6.35101337	     19.55674798	     13.83282489	     14.95906876	      6.26674770	      7.13755331	      8.25754938	     24.89021167	     10.51534472	     21.52535088	     17.33588747	      3.56780686	     13.83936450	      9.68391681	      7.10161069	      6.08785758	     10.54404140	      8.16273318	      5.30836215	      3.71313099	      8.96070599	     13.64201279	     10.31621931	     37.78869789	     30.17836039	      8.70368218	      5.35279429	     12.11365472	     29.68131451	     16.51728325	     19.20146556	     20.64573088	     43.03596913	     20.03618158	     92.31398575	     69.11969625	      9.86582121	      9.70689528	     23.05424808	     12.51062401	     30.10182574	      4.65896194	     15.28806995	      4.77914940	     59.04740726	     59.04740726	     22.69972148	     22.69972148	     39.32451595	     39.32451595	      2.76307435	     50.99597937	     -9.56042239	      5.21997485	     -0.02578839	      1.48581788	     -2.76307435	    -50.99597937	      9.56042239	     -1.74637766	      0.02558040	     -0.48301696	     -3.31599387	     20.97615968	     -3.40468921	      0.94473225	     -0.02138609	     -1.00501789	      3.31599387	    -20.97615968	      3.40468921	      0.28075727	      0.00368718	     -0.29758878	     69.05020172	    276.68646803	     14.66358090	    -12.47931257	      1.68625574	     26.73755214	    -69.05020172	   -276.68646803	    -14.66358090	      7.83228585	     -2.03100558	      1.65017601	    107.06973289	    682.55951121	     23.28061692	      6.59554131	     -2.25274150	     40.71269094	   -107.06973289	   -682.55951121	    -23.28061692	    -13.12923994	      1.71427487	      5.12358942	      0.00000000	      0.00000000	      0.00000000	      0.00000000	      0.00000000	      0.00000000	      0.00000000	      0.00000000	      0.00000000	      0.00000000	      0.00000000	      0.00000000	      0.00000000	      0.00000000	      0.00000000	      0.00000000	      0.00000000	      0.00000000	      0.00000000	      0.00000000	      0.00000000	      0.00000000	      0.00000000	      0.00000000	     33.32223396	   -269.99954942	     27.38555051	     -5.97588816	     -0.40163052	      3.26728776	    -33.32223396	    269.99954942	    -27.38555051	     17.38450872	      0.71363887	    -14.07293539	      0.00000000	      0.00000000	      0.00000000	      0.00000000	      0.00000000	      0.00000000	      0.00000000	      0.00000000	      0.00000000	      0.00000000	      0.00000000	      0.00000000	      0.00000000	      0.00000000	     32.89942357	     46.60507616	      0.00000000	      0.00000000	      0.00000000	      9.95730907	      0.00000000	      0.00000000	      0.00000000	      0.00000000	      0.00000001	      0.00000000
      0.08185841	     19.44924333	     13.75968573	     14.87924117	      6.23471776	      7.10209661	      8.21218743	    147.18395555	    182.21653015	    180.65717948	    330.07193478	    131.60983093	     13.76554342	      9.63484355	      7.06408845	      6.05513262	     10.48564243	      9.01290132	      5.28103703	    108.53374259	      8.91294462	     13.56924157	     10.26069834	     37.65079343	     30.02241604	      8.65836672	      5.32995092	     12.04712846	     45.69694959	     32.57245570	     35.01948275	     45.81016540	     48.74890714	      8.82478313	      0.00000000	      0.00000000	      1.46216500	      0.87814313	     36.14636234	      5.54750698	      7.56305902	     14.33047317	     21.59356426	      6.32529650	     19.44924333	     13.75968573	     14.87924117	      6.23471776	      7.10209661	      8.21218743	     24.75348983	     10.45766247	     21.40581768	     17.24548018	      3.54964936	     13.76554342	      9.63484355	      7.06408845	      6.05513262	     10.48564243	      8.12684008	      5.28103703	      3.69394040	      8.91294462	     13.56924157	     10.26069834	     37.65079343	     30.02241604	      8.65836672	      5.32995092	     12.04712846	     29.51612723	     16.42738941	     19.09620095	     20.53210493	     42.80477855	     19.92804811	     91.80567171	     68.88787884	      9.80931249	      9.65058925	     22.92589415	     12.44066271	     29.94805208	      4.63491222	     15.20578209	      4.75324306	     58.74503006	     58.74503006	     22.57669802	     22.57669802	     39.20982840	     39.20982840	      2.76307435	     50.99597937	     -9.56042239	      5.21997485	     -0.02578839	      1.48581788	     -2.76307435	    -50.99597937	      9.56042239	     -1.74637766	      0.02558040	     -0.48301696	     -3.31599387	     20.97615968	     -3.40468921	      0.94473225	     -0.02138609	     -1.00501789	      3.31599387	    -20.97615968	      3.40468921	      0.28075727	      0.00368718	     -0.29758878	     67.52014014	    264.73196765	     13.39456025	    -11.67354216	      1.64127708	     26.15675109	    -67.52014014	   -264.73196765	    -13.39456025	      7.46814271	     -1.97240878	      1.58662391	    110.02087067	    677.26034210	     22.74236233	      6.68283094	     -2.32563164	     41.89145347	   -110.02087067	   -677.26034210	    -22.74236233	    -13.03472458	      1.77940101	      5.10371770	      0.00000000	      0.00000000	      0.00000000	      0.00000000	      0.00000000	      0.00000000	      0.00000000	      0.00000000	      0.00000000	      0.00000000	      0.00000000	      0.00000000	      0.00000000	      0.00000000	      0.00000000	      0.00000000	      0.00000000	      0.00000000	      0.00000000	      0.00000000	      0.00000000	      0.00000000	      0.00000000	      0.00000000	     32.25530281	   -273.80770599	     28.51682621	     -6.08304856	     -0.36734376	      3.30238745	    -32.25530281	    273.80770599	    -28.51682621	     17.93471839	      0.68641995	    -13.64413008	      0.00000000	      0.00000000	      0.00000000	      0.00000000	      0.00000000	      0.00000000	      0.00000000	      0.00000000	      0.00000000	      0.00000000	      0.00000000	      0.00000000	      0.00000000	      0.00000000	     35.21810469	     49.35207597	      0.00000000	      0.00000000	      0.00000000	     11.14789672	      0.00000000	      0.00000000	      0.00000000	      0.00000000	      0.00000001	      0.00000000
